<svg xmlns="http://www.w3.org/2000/svg" width="371.613" height="36.085" viewBox="0 0 371.613 36.085"><g transform="translate(-425 -229.401)"><g transform="translate(736 237.209)" style="mix-blend-mode:luminosity;isolation:isolate"><path d="M-772.825-181.489a.346.346,0,0,1-.263-.122.342.342,0,0,1-.078-.278l.2-1.242.691-4.383.023-.141.767-4.859a.575.575,0,0,1,.569-.486h3.605a7.514,7.514,0,0,1,1.19.086,4.773,4.773,0,0,1,.59.131l.136.042a3.234,3.234,0,0,1,.5.211,2.282,2.282,0,0,1,.655.5,3.123,3.123,0,0,1,.48,2.758c-.531,2.725-2.346,3.667-4.666,3.667h-.358a.576.576,0,0,0-.569.487l-.029.157-.451,2.86-.023.121a.577.577,0,0,1-.569.486Zm.545-6.025a.657.657,0,0,1,.221-.4A.654.654,0,0,0-772.279-187.513Zm2.183-.557c2.562-.05,4.555-1.147,5.148-4.189C-765.541-189.218-767.534-188.12-770.1-188.07Z" transform="translate(776.205 196.289)" fill="#179bd7"></path><path d="M40.835,6.749H37.481a.466.466,0,0,0-.461.393l-1.357,8.6a.28.28,0,0,0,.277.323h1.6A.466.466,0,0,0,38,15.672l.366-2.32a.466.466,0,0,1,.46-.394H39.89a3.445,3.445,0,0,0,3.818-3.188,2.584,2.584,0,0,0-.428-2.165,3.112,3.112,0,0,0-2.445-.856Zm.387,3.141c-.183,1.2-1.1,1.2-1.992,1.2h-.506l.355-2.248a.28.28,0,0,1,.276-.236h.232c.606,0,1.177,0,1.472.345A1.118,1.118,0,0,1,41.222,9.89Zm9.639-.039H49.255a.28.28,0,0,0-.276.236l-.071.449-.112-.163A2.286,2.286,0,0,0,46.9,9.7a3.694,3.694,0,0,0-3.586,3.23,3.032,3.032,0,0,0,.6,2.467,2.513,2.513,0,0,0,2.023.817,3.073,3.073,0,0,0,2.223-.92l-.072.446a.28.28,0,0,0,.276.324h1.447a.466.466,0,0,0,.461-.394l.868-5.5a.279.279,0,0,0-.275-.323Zm-2.239,3.126a1.79,1.79,0,0,1-1.812,1.534,1.244,1.244,0,0,1-1.331-1.562,1.8,1.8,0,0,1,1.8-1.546,1.355,1.355,0,0,1,1.071.437A1.39,1.39,0,0,1,48.622,12.978ZM59.416,9.852H57.8a.468.468,0,0,0-.386.2l-2.226,3.279-.944-3.151a.467.467,0,0,0-.447-.333H52.212a.28.28,0,0,0-.265.37l1.778,5.217L52.054,17.8a.28.28,0,0,0,.228.441h1.612a.465.465,0,0,0,.383-.2l5.369-7.749a.28.28,0,0,0-.23-.439Z" transform="translate(-18.17 -3.439)" fill="#253b80"></path><path d="M89.616,6.748H86.261a.466.466,0,0,0-.46.393l-1.357,8.6a.279.279,0,0,0,.276.323h1.721a.326.326,0,0,0,.322-.276l.385-2.438a.466.466,0,0,1,.46-.394H88.67A3.445,3.445,0,0,0,92.488,9.77,2.582,2.582,0,0,0,92.06,7.6a3.109,3.109,0,0,0-2.444-.856ZM90,9.89c-.183,1.2-1.1,1.2-1.992,1.2H87.5l.356-2.248a.279.279,0,0,1,.276-.236h.232c.605,0,1.177,0,1.472.345A1.118,1.118,0,0,1,90,9.89Zm9.639-.039H98.036a.278.278,0,0,0-.276.236l-.071.449-.113-.163a2.285,2.285,0,0,0-1.9-.673,3.693,3.693,0,0,0-3.586,3.23,3.033,3.033,0,0,0,.6,2.467,2.515,2.515,0,0,0,2.023.817,3.073,3.073,0,0,0,2.223-.92l-.072.446a.28.28,0,0,0,.277.324H98.59a.466.466,0,0,0,.46-.394l.869-5.5a.28.28,0,0,0-.277-.323ZM97.4,12.977a1.789,1.789,0,0,1-1.812,1.534,1.244,1.244,0,0,1-1.331-1.562,1.8,1.8,0,0,1,1.8-1.546,1.355,1.355,0,0,1,1.071.437A1.383,1.383,0,0,1,97.4,12.977Zm4.133-5.993-1.377,8.759a.279.279,0,0,0,.276.323h1.384a.465.465,0,0,0,.461-.394l1.358-8.6a.28.28,0,0,0-.276-.323h-1.55A.28.28,0,0,0,101.535,6.984Z" transform="translate(-43.027 -3.438)" fill="#179bd7"></path><path d="M-772.775-179.841a.4.4,0,0,1-.3-.14.4.4,0,0,1-.089-.318l1.916-12.146a.656.656,0,0,1,.65-.555h4.6a4.574,4.574,0,0,1,3.51,1.115,2.946,2.946,0,0,1,.624,2.645q-.068-.036-.14-.069.07.033.139.069c-.013.087-.029.177-.047.269-.607,3.115-2.682,4.191-5.333,4.191h-1.35a.654.654,0,0,0-.647.555l.022-.142-.713,4.525Zm4.32-9.383a.575.575,0,0,1,.567-.486h0A.574.574,0,0,0-768.455-189.224Zm5.241-.417q-.188-.027-.388-.043Q-763.408-189.668-763.215-189.642Z" transform="translate(773.17 193)" fill="#222d65"></path></g><g transform="translate(-715.504 900.117)" style="mix-blend-mode:luminosity;isolation:isolate"><path d="M21.234,123.4a69.184,69.184,0,0,1,43.039-4.323l.2-4.76c-19.8-2.162-34.01,4.145-43.236,8.614Z" transform="translate(1122.854 -760.38)" fill="#e7a83a" fill-rule="evenodd"></path><path d="M22.649,65.471l4.377-14.433h3.906L26.554,65.471ZM20.9,51.042,17.39,57.16a14.806,14.806,0,0,0-1.669,3.424h-.053c.062-1.284-.117-2.86-.134-3.75l-.388-5.792H8.572L8.5,51.43a2.725,2.725,0,0,1,2.966,2.584l1.281,11.457H16.8l8.181-14.429ZM51.276,65.471l-.108-2.147-4.877,0-1,2.15h-4.24l7.688-14.405h5.2l1.3,14.405H51.276Zm-.448-8.514a33.113,33.113,0,0,1-.007-3.391h-.058c-.238.716-1.259,2.868-1.708,3.926L47.6,60.656h3.424l-.2-3.7Zm-15.8,8.924a10.922,10.922,0,0,1-5.894-1.654L31,61.385A7.213,7.213,0,0,0,35.211,62.8a1.812,1.812,0,0,0,1.71-.823c.543-.939-.125-1.444-1.651-2.308l-.753-.49c-2.262-1.546-3.24-3.013-2.175-5.576.681-1.639,2.478-2.881,5.442-2.881a8.745,8.745,0,0,1,5.078,1.748l-2.139,2.509A4.75,4.75,0,0,0,37.7,53.65a1.821,1.821,0,0,0-1.667.747c-.407.806.131,1.355,1.32,2.093l.9.57c2.746,1.732,3.4,3.548,2.712,5.246C39.774,65.228,37.456,65.881,35.032,65.881ZM56.317,53.27h-.257V51.705h.594c.378,0,.571.132.571.45a.4.4,0,0,1-.408.427l.438.688h-.291l-.4-.669h-.242v.669Zm.287-.888c.193,0,.363-.019.363-.246,0-.189-.185-.212-.34-.212h-.31v.457ZM56.6,53.875a1.414,1.414,0,1,1,1.383-1.413A1.36,1.36,0,0,1,56.6,53.875Zm0-2.581a1.171,1.171,0,1,0,1.081,1.168A1.1,1.1,0,0,0,56.6,51.294Z" transform="translate(1132 -715)" fill="#1d5b99" fill-rule="evenodd"></path></g><path d="M57.225,28.9c-1.148,0-1.028,1.411-1.075,2.916h1.912c0-1.7,0-2.916-.837-2.916ZM56.15,34.281c0,1.362.669,1.625,1.793,1.625a22.8,22.8,0,0,0,3.705-.5v3.3a12.34,12.34,0,0,1-3.705.645c-2.845,0-6.311-.454-6.311-6.526,0-5.355,2.725-6.622,5.594-6.622,2.94,0,5.068,1.506,5.068,6.574v1.506H56.15ZM44.936,29.547a2.92,2.92,0,0,0-1.075.383v6.119a3.131,3.131,0,0,0,.765.12c.789,0,1.267-.669,1.267-3.466,0-2.845-.216-3.156-.957-3.156Zm.526,9.8a7.454,7.454,0,0,1-1.6-.263v4.566H39.319V26.44H43l.67.789a4.108,4.108,0,0,1,2.7-1.028c1.864,0,4.064.526,4.064,6.5,0,6.55-3.3,6.646-4.972,6.646ZM35.135,24.886a2.271,2.271,0,1,1,2.247-2.271A2.25,2.25,0,0,1,35.135,24.886ZM32.864,39.109V26.44h4.542V39.109ZM30.114,30a2.97,2.97,0,0,0-1.506.43v8.677H24.066V26.44h3.61l.669,1.219A2.1,2.1,0,0,1,30.377,26.2a3.12,3.12,0,0,1,1.41.263V30.24A6.721,6.721,0,0,0,30.114,30Zm-8.631,5.9c.287,0,1.291-.143,1.625-.191v3.227a17.188,17.188,0,0,1-3.227.406c-1.291,0-3.705-.143-3.705-3.657V29.332H14.5V26.44h1.674l.574-2.868,3.968-.956V26.44h2.39l-.6,2.893H20.718v5.546c0,.86.263,1.028.765,1.028ZM9.745,30.1c0,.5.335.669,1.124,1.028l.478.215a3.775,3.775,0,0,1,2.677,3.705c0,3.825-2.845,4.3-4.876,4.3a13.113,13.113,0,0,1-3.634-.6V35.476a15.936,15.936,0,0,0,2.845.55c.693,0,1.219-.1,1.219-.717,0-.478-.335-.693-1.076-1.028l-.574-.263a3.821,3.821,0,0,1-2.606-3.681c0-3.395,2.653-4.135,4.877-4.135a9.084,9.084,0,0,1,3.347.6v3.179a11.786,11.786,0,0,0-2.844-.5c-.55,0-.956.143-.956.621Z" transform="translate(499.678 212.612)" fill="#359ad5" style="mix-blend-mode:luminosity;isolation:isolate"></path><g transform="translate(593 229.402)" style="mix-blend-mode:luminosity;isolation:isolate"><path d="M143.021,1321.728v.085h.079a.082.082,0,0,0,.042-.011.038.038,0,0,0,.016-.032.036.036,0,0,0-.016-.032.074.074,0,0,0-.042-.011h-.079Zm.08-.06a.146.146,0,0,1,.1.028.091.091,0,0,1,.033.075.087.087,0,0,1-.027.066.13.13,0,0,1-.076.031l.106.121h-.082l-.1-.12h-.032v.12h-.068v-.322h.149Zm-.021.433a.256.256,0,0,0,.1-.021.271.271,0,0,0,.143-.142.275.275,0,0,0,0-.21.271.271,0,0,0-.143-.143.266.266,0,0,0-.1-.02.278.278,0,0,0-.106.02.268.268,0,0,0-.144.355.254.254,0,0,0,.057.085.272.272,0,0,0,.087.058.263.263,0,0,0,.106.021m0-.616a.356.356,0,0,1,.25.1.343.343,0,0,1,.075.379.36.36,0,0,1-.075.11.38.38,0,0,1-.112.074.346.346,0,0,1-.138.027.352.352,0,0,1-.139-.027.333.333,0,0,1-.187-.188.343.343,0,0,1,.075-.379.335.335,0,0,1,.113-.074.351.351,0,0,1,.139-.028m-32.538-1.238a1.056,1.056,0,1,1,1.058,1.117,1.047,1.047,0,0,1-1.058-1.117m2.824,0V1318.5h-.758v.425a1.322,1.322,0,0,0-1.1-.511,1.834,1.834,0,0,0,0,3.663,1.323,1.323,0,0,0,1.1-.511v.423h.758v-1.745Zm25.625,0a1.056,1.056,0,1,1,1.058,1.117,1.047,1.047,0,0,1-1.058-1.117m2.825,0V1317.1h-.759v1.825a1.322,1.322,0,0,0-1.1-.511,1.834,1.834,0,0,0,0,3.663,1.323,1.323,0,0,0,1.1-.511v.423h.759Zm-19.037-1.153a.866.866,0,0,1,.883.846h-1.81a.9.9,0,0,1,.927-.846m.015-.68a1.833,1.833,0,0,0,.051,3.663,2.118,2.118,0,0,0,1.43-.489l-.372-.562a1.664,1.664,0,0,1-1.015.365.969.969,0,0,1-1.043-.854h2.59c.007-.094.015-.19.015-.292a1.673,1.673,0,0,0-1.656-1.831m9.156,1.831a1.056,1.056,0,1,1,1.058,1.117,1.047,1.047,0,0,1-1.058-1.117m2.824,0V1318.5h-.758v.425a1.323,1.323,0,0,0-1.1-.511,1.834,1.834,0,0,0,0,3.663,1.324,1.324,0,0,0,1.1-.511v.423h.758v-1.745Zm-7.106,0a1.762,1.762,0,0,0,1.861,1.832,1.824,1.824,0,0,0,1.254-.416l-.364-.613a1.533,1.533,0,0,1-.914.314,1.119,1.119,0,0,1,0-2.233,1.537,1.537,0,0,1,.914.314l.364-.613a1.825,1.825,0,0,0-1.254-.416,1.762,1.762,0,0,0-1.861,1.831m9.777-1.831a1.03,1.03,0,0,0-.919.511v-.423h-.752v3.488h.759v-1.955c0-.577.248-.9.744-.9a1.232,1.232,0,0,1,.474.088l.234-.715a1.608,1.608,0,0,0-.54-.1m-20.328.365a2.606,2.606,0,0,0-1.422-.365c-.884,0-1.452.424-1.452,1.116,0,.569.424.92,1.2,1.029l.358.051c.416.058.612.168.612.365,0,.27-.276.423-.795.423a1.859,1.859,0,0,1-1.16-.365l-.356.591a2.515,2.515,0,0,0,1.51.453c1.007,0,1.591-.474,1.591-1.138,0-.613-.459-.934-1.218-1.043l-.357-.052c-.328-.043-.591-.109-.591-.342,0-.255.248-.408.664-.408a2.248,2.248,0,0,1,1.087.3l.328-.613Zm9.786-.364a1.027,1.027,0,0,0-.919.511v-.424h-.752v3.488h.758v-1.955c0-.577.248-.9.744-.9a1.232,1.232,0,0,1,.474.088l.234-.715a1.608,1.608,0,0,0-.54-.1m-6.471.088h-1.24v-1.058h-.767v1.058h-.707v.693h.707v1.591c0,.809.314,1.291,1.211,1.291a1.781,1.781,0,0,0,.949-.27l-.219-.649a1.4,1.4,0,0,1-.671.2c-.379,0-.5-.234-.5-.584v-1.576h1.24Zm-11.339,3.489V1319.8a1.3,1.3,0,0,0-1.372-1.386,1.35,1.35,0,0,0-1.226.62,1.28,1.28,0,0,0-1.153-.62,1.154,1.154,0,0,0-1.021.518v-.431h-.759v3.488h.765v-1.934a.816.816,0,0,1,.854-.927c.5,0,.758.328.758.919v1.941h.767v-1.934a.823.823,0,0,1,.853-.927c.518,0,.765.328.765.919v1.941Z" transform="translate(-101.359 -1289.113)" fill="#231f20"></path><path d="M1929.957,977.73v-.51h-.133l-.154.35-.153-.35h-.133v.51h.094v-.384l.144.332h.1l.144-.332v.385h.094Zm-.843,0v-.423h.17v-.086h-.434v.086h.17v.423h.094Z" transform="translate(-1887.863 -956.455)" fill="#f79410"></path><path d="M741.2,152.8H729.71V132.15H741.2Z" transform="translate(-714.204 -129.343)" fill="#ff5f00"></path><path d="M16.235,13.135A13.114,13.114,0,0,1,21.251,2.808a13.136,13.136,0,1,0,0,20.655,13.114,13.114,0,0,1-5.017-10.327" transform="translate(0 0)" fill="#eb001b"></path><path d="M1021.363,13.135a13.135,13.135,0,0,1-21.253,10.327,13.137,13.137,0,0,0,0-20.655,13.135,13.135,0,0,1,21.252,10.327" transform="translate(-978.858 0)" fill="#f79e1b"></path></g><path d="M5.03,49.126H4.91c0-.06-.03-.15-.03-.18s0-.09-.09-.09H4.61v.27H4.52V48.5h.27c.12,0,.21.03.21.15a.176.176,0,0,1-.06.15.157.157,0,0,1,.06.12v.12c0,.03,0,.03.03.03Zm-.12-.45c0-.09-.06-.09-.09-.09H4.61v.18h.18C4.85,48.766,4.91,48.736,4.91,48.676Zm.51.12a.673.673,0,0,0-.69-.66.666.666,0,0,0-.66.66.675.675,0,1,0,1.35,0Zm-.09,0a.577.577,0,0,1-.6.57.552.552,0,0,1-.57-.57.57.57,0,0,1,.57-.57A.6.6,0,0,1,5.33,48.8ZM42.284,36.678c0,.9-.57,1.319-1.59,1.319H38.745v-.9h1.949a.622.622,0,0,0,.39-.09.382.382,0,0,0,.12-.27.457.457,0,0,0-.12-.3.52.52,0,0,0-.36-.09c-.93-.03-2.1.03-2.1-1.29a1.265,1.265,0,0,1,1.44-1.26h2.01v.9h-1.86a.711.711,0,0,0-.39.06.43.43,0,0,0-.15.33.327.327,0,0,0,.21.3,1.534,1.534,0,0,0,.39.06h.54a1.7,1.7,0,0,1,1.17.33A1.3,1.3,0,0,1,42.284,36.678Zm-4.229-.9a1.7,1.7,0,0,0-1.17-.33h-.54a1.538,1.538,0,0,1-.39-.06.326.326,0,0,1-.21-.3.352.352,0,0,1,.15-.33.711.711,0,0,1,.39-.06h1.86v-.9h-2.01c-1.08,0-1.44.66-1.44,1.26,0,1.319,1.17,1.26,2.1,1.29a.519.519,0,0,1,.36.09.458.458,0,0,1,.12.3.381.381,0,0,1-.12.27.682.682,0,0,1-.39.09h-1.95V38h1.95c1.02,0,1.59-.42,1.59-1.319a1.294,1.294,0,0,0-.3-.9Zm-3.84,1.35H31.846v-.84h2.309v-.84H31.846v-.78h2.369V33.8H30.856V38h3.359v-.87Zm-4.439-3.119a2.518,2.518,0,0,0-1.23-.21H26.237V38h1.02v-1.53h1.08c.36,0,.57.03.72.18a1.339,1.339,0,0,1,.18.84V38h.99v-.81a1.384,1.384,0,0,0-.15-.78,1.17,1.17,0,0,0-.51-.36,1.156,1.156,0,0,0,.72-1.11A.942.942,0,0,0,29.776,34.008Zm-5.7-.21h-3.21l-1.29,1.38-1.23-1.38H14.3V38h3.99l1.29-1.38L20.808,38h1.95V36.588h1.26c.87,0,1.74-.24,1.74-1.41,0-1.14-.9-1.38-1.68-1.38Zm4.889,1.74a1.246,1.246,0,0,1-.48.06l-1.23.03v-.96h1.23a.813.813,0,0,1,.48.09.382.382,0,0,1,.21.36A.524.524,0,0,1,28.966,35.538Zm-4.889.21h-1.32v-1.08h1.32c.36,0,.6.15.6.51A.544.544,0,0,1,24.077,35.748Zm-3.87.15,1.56-1.649v3.389Zm-2.43,1.23h-2.49v-.84h2.22v-.84h-2.22v-.78h2.52l1.11,1.23Zm21.717-6.359h-1.44l-1.89-3.15v3.15H34.126l-.39-.93h-2.1l-.39.93h-1.17a2.17,2.17,0,0,1-1.469-.48,2.2,2.2,0,0,1-.51-1.59,2.168,2.168,0,0,1,.54-1.65,2.036,2.036,0,0,1,1.53-.48h.96v.9h-.96a1.06,1.06,0,0,0-.78.24,1.359,1.359,0,0,0-.27.96,1.5,1.5,0,0,0,.27.99,1,1,0,0,0,.69.21h.45l1.44-3.3h1.5l1.68,3.959v-3.96H36.7l1.77,2.91v-2.91h1.02v4.2h0Zm-11.908-4.2h-1.02v4.2h1.02v-4.2Zm-2.13.18a2.414,2.414,0,0,0-1.2-.18h-2.31v4.2h.99v-1.53h1.08a1.028,1.028,0,0,1,.75.18,1.274,1.274,0,0,1,.15.81v.54h1.02v-.84a1.12,1.12,0,0,0-.18-.75,1.255,1.255,0,0,0-.48-.36,1.191,1.191,0,0,0,.72-1.11,1.039,1.039,0,0,0-.54-.96ZM21.227,29.9h-2.34v-.84H21.2v-.87h-2.31v-.75h2.34v-.87H17.868v4.2h3.359V29.9Zm-4.109-3.33h-1.65l-1.23,2.85-1.32-2.85H11.3v3.959l-1.71-3.959H8.09l-1.8,4.2H7.37l.39-.93h2.1l.39.93h2.04v-3.3l1.47,3.3h.87l1.47-3.3v3.3h1.02v-4.2Zm16.258,2.37-.69-1.65L32,28.939Zm-8.7-.66a.917.917,0,0,1-.51.09h-1.23v-.93h1.23a1.324,1.324,0,0,1,.51.06.446.446,0,0,1,.18.39A.413.413,0,0,1,24.677,28.279Zm-16.558.66.69-1.65.69,1.65ZM42.044,13.4H6.26V28.519l1.23-2.79H10.1l.36.69v-.69h3.06l.69,1.5.66-1.5h9.749a1.773,1.773,0,0,1,1.14.33v-.33h2.669v.33a3.572,3.572,0,0,1,1.68-.33h3.869l.36.69v-.69h2.85l.42.69v-.69h2.789v5.879H37.575l-.54-.9v.9h-3.51l-.39-.96h-.87l-.39.96h-1.83a3.594,3.594,0,0,1-1.62-.36v.36H24.077v-1.35c0-.18-.03-.21-.15-.21h-.15v1.56h-8.4v-.75l-.3.75h-1.77l-.3-.72v.72H9.619l-.36-.96h-.87l-.39.96H6.26V49.336H42.044V38.567a3.673,3.673,0,0,1-1.47.27h-2.61v-.36a2.313,2.313,0,0,1-1.35.36H28.4v-1.35c0-.18-.03-.18-.18-.18h-.15v1.53h-2.7v-1.59a3.3,3.3,0,0,1-1.41.21h-.3v1.38h-3.3l-.78-.9-.87.9H13.4V32.958h5.4l.78.9.84-.9h3.629a2.263,2.263,0,0,1,1.41.36v-.36H28.7a2.566,2.566,0,0,1,1.38.36v-.36h4.889v.36a2,2,0,0,1,1.23-.36h2.729v.36a2.169,2.169,0,0,1,1.26-.36h1.86Z" transform="translate(662.93 216)" fill="#0077a6" fill-rule="evenodd" style="mix-blend-mode:luminosity;isolation:isolate"></path></g></svg>